<svg width="23" height="25" viewBox="0 0 23 25" fill="none" xmlns="http://www.w3.org/2000/svg">
<path d="M7.5 11.25V13.75H5V11.25H7.5ZM12.5 11.25V13.75H10V11.25H12.5ZM17.5 11.25V13.75H15V11.25H17.5ZM20 2.5C20.663 2.5 21.2989 2.76339 21.7678 3.23223C22.2366 3.70107 22.5 4.33696 22.5 5V22.5C22.5 23.163 22.2366 23.7989 21.7678 24.2678C21.2989 24.7366 20.663 25 20 25H2.5C1.1125 25 0 23.875 0 22.5V5C0 4.33696 0.263392 3.70107 0.732233 3.23223C1.20107 2.76339 1.83696 2.5 2.5 2.5H3.75V0H6.25V2.5H16.25V0H18.75V2.5H20ZM20 22.5V8.75H2.5V22.5H20ZM7.5 16.25V18.75H5V16.25H7.5ZM12.5 16.25V18.75H10V16.25H12.5ZM17.5 16.25V18.75H15V16.25H17.5Z" fill="white"/>
</svg>
